<svg width="133.8" height="149.2" xmlns="http://www.w3.org/2000/svg" viewBox="0 0 133.8 149.2"><defs><style>.cls-1{fill:#e2e2e2;fill-opacity:.5}.cls-2{fill:#ffe23f}.cls-3,.cls-6{fill:#fff}.cls-3,.cls-4,.cls-5{stroke:#000;stroke-miterlimit:10;stroke-width:2px}.cls-5{fill:none}</style></defs><path class="cls-1" d="M74.4 23.2A21.3 21.3 0 0 0 71 10a22 22 0 0 0-37 24l1.8 2.3L68 73l6-46.7.4-3z"/><path class="cls-2" d="M94.8 149.2H38.2A38.2 38.2 0 0 1 0 111a38.2 38.2 0 0 1 38.2-38.2h56.6A38.2 38.2 0 0 1 133 111a38 38 0 0 1-38.2 38.2z"/><circle class="cls-3" cx="39.4" cy="111.9" r="32.7"/><circle class="cls-3" cx="82.5" cy="110.7" r="32.7"/><circle class="cls-4" cx="82.5" cy="110.7" r="3.1"/><circle class="cls-4" cx="39.4" cy="111.9" r="3.1"/><path d="M116 111.4c3-2.7 6.3-5.5 9.7-8 1-.7 3.4-2.8 4.8-2.5 1.7.2 1.2 5.6 1.3 7s2 1.2 2 0c-.2-2.5.6-8.4-2.7-9-1.6-.5-3.6 1-5 2a101 101 0 0 0-11.4 9c-1 1 .4 2.2 1.4 1.3z"/><path class="cls-5" d="M117.8 118.4c-.2 7-6.2 19-17.3 23.7"/><path class="cls-6" d="M100 35a21.6 21.6 0 0 0 4.4-13 22 22 0 0 0-43.8 0c0 1 0 2 .2 3l6.8 48L98 37a22 22 0 0 0 2-2.3z"/></svg>